<?xml version="1.0" encoding="UTF-8" standalone="no"?>
<!-- Svg Vector Icons : http://www.onlinewebfonts.com/icon -->

<svg
   xmlns:dc="http://purl.org/dc/elements/1.1/"
   xmlns:cc="http://creativecommons.org/ns#"
   xmlns:rdf="http://www.w3.org/1999/02/22-rdf-syntax-ns#"
   xmlns:svg="http://www.w3.org/2000/svg"
   xmlns="http://www.w3.org/2000/svg"
   xmlns:sodipodi="http://sodipodi.sourceforge.net/DTD/sodipodi-0.dtd"
   xmlns:inkscape="http://www.inkscape.org/namespaces/inkscape"
   version="1.1"
   x="0px"
   y="0px"
   viewBox="0 0 1000 1000"
   enable-background="new 0 0 1000 1000"
   xml:space="preserve"
   id="svg2"
   inkscape:version="0.91 r13725"
   sodipodi:docname="3e438fb15b149252e4b51c0567c039a2.svg"><defs
     id="defs12" /><sodipodi:namedview
     pagecolor="#ffffff"
     bordercolor="#666666"
     borderopacity="1"
     objecttolerance="10"
     gridtolerance="10"
     guidetolerance="10"
     inkscape:pageopacity="0"
     inkscape:pageshadow="2"
     inkscape:window-width="1839"
     inkscape:window-height="1050"
     id="namedview10"
     showgrid="false"
     inkscape:zoom="0.236"
     inkscape:cx="500"
     inkscape:cy="500"
     inkscape:window-x="81"
     inkscape:window-y="30"
     inkscape:window-maximized="1"
     inkscape:current-layer="svg2" /><metadata
     id="metadata4"> Svg Vector Icons : http://www.onlinewebfonts.com/icon <rdf:RDF><cc:Work
     rdf:about=""><dc:format>image/svg+xml</dc:format><dc:type
       rdf:resource="http://purl.org/dc/dcmitype/StillImage" /></cc:Work></rdf:RDF></metadata><g
     id="g6"
     style="fill:#333333;fill-opacity:1"><path
       d="M975.4,320.4L518.1,15.5c-11-7.3-25.3-7.3-36.2,0L24.5,320.4c-9.1,6-14.5,16.3-14.5,27.2v304.9c0,10.9,5.5,21.1,14.5,27.2l457.3,304.9c5.5,3.7,11.8,5.5,18.1,5.5c6.3,0,12.6-1.8,18.1-5.5l457.3-304.9c9.1-6,14.5-16.3,14.5-27.2V347.6C990,336.7,984.5,326.4,975.4,320.4L975.4,320.4z M500,613.2L330.2,500L500,386.8L669.7,500L500,613.2z M532.6,330.1V103.7l365.8,243.9L728.6,460.8L532.6,330.1L532.6,330.1z M467.3,330.1l-196,130.7L101.5,347.6l365.8-243.9V330.1z M212.4,500L75.3,591.4V408.6L212.4,500z M271.3,539.3l196,130.7v226.4L101.5,652.5L271.3,539.3z M532.6,669.9l196-130.7l169.8,113.2L532.6,896.3V669.9z M787.5,500l137.1-91.4v182.8L787.5,500z"
       id="path8"
       style="fill:#333333;fill-opacity:1" /></g></svg>