<svg xmlns="http://www.w3.org/2000/svg" height="24" width="24"><path d="M0 0h24v24H0z" fill="none"/><path fill="#333" fill-rule="evenodd" d="M.321 49.766h23.358v2.997H.321z"/><path d="M0 0h24v24H0z" fill="none"/><path d="M6.818 1.433c-3.056 0-5.543 2.072-6.175 4.912h22.714c-.632-2.84-3.12-4.912-6.175-4.912-2.004 0-3.927.933-5.182 2.407-1.255-1.474-3.178-2.407-5.182-2.407zM.785 9.798c.34 1.18.99 2.332 1.867 3.511h18.696c.876-1.179 1.527-2.33 1.867-3.511H.785zm4.946 6.961c1.336 1.32 2.875 2.723 4.6 4.288L12 22.567l1.669-1.51c1.727-1.568 3.268-2.975 4.604-4.298H5.731z" fill="#333"/></svg>