<svg xmlns="http://www.w3.org/2000/svg" height="34" width="34"><path d="M0 10h24v24H0z" fill="none"/><path d="M.321 59.766h23.358v2.997H.321z" fill="#333" fill-rule="evenodd"/><path d="M0 10h24v24H0z" fill="none"/><path d="M9.535 1.777c-4.402 0-7.985 2.985-8.896 7.077h32.722c-.91-4.092-4.495-7.077-8.896-7.077-2.887 0-5.657 1.345-7.465 3.468-1.808-2.123-4.578-3.468-7.465-3.468zM.844 13.827c.49 1.7 1.426 3.36 2.69 5.059h26.932c1.262-1.699 2.2-3.357 2.69-5.058H.844zm7.125 10.029c1.925 1.901 4.142 3.922 6.627 6.177L17 32.223l2.404-2.176c2.488-2.259 4.708-4.285 6.633-6.191H7.969z" fill="#333"/></svg>