<?xml version="1.0" encoding="UTF-8" standalone="no"?>
<svg
   xmlns:dc="http://purl.org/dc/elements/1.1/"
   xmlns:cc="http://creativecommons.org/ns#"
   xmlns:rdf="http://www.w3.org/1999/02/22-rdf-syntax-ns#"
   xmlns:svg="http://www.w3.org/2000/svg"
   xmlns="http://www.w3.org/2000/svg"
   xmlns:sodipodi="http://sodipodi.sourceforge.net/DTD/sodipodi-0.dtd"
   xmlns:inkscape="http://www.inkscape.org/namespaces/inkscape"
   viewBox="0 0 50 50"
   enable-background="new 0 0 50 50"
   id="svg2"
   version="1.1"
   inkscape:version="0.91 r13725"
   sodipodi:docname="linkedin.svg">
  <metadata
     id="metadata10">
    <rdf:RDF>
      <cc:Work
         rdf:about="">
        <dc:format>image/svg+xml</dc:format>
        <dc:type
           rdf:resource="http://purl.org/dc/dcmitype/StillImage" />
      </cc:Work>
    </rdf:RDF>
  </metadata>
  <defs
     id="defs8" />
  <sodipodi:namedview
     pagecolor="#ffffff"
     bordercolor="#666666"
     borderopacity="1"
     objecttolerance="10"
     gridtolerance="10"
     guidetolerance="10"
     inkscape:pageopacity="0"
     inkscape:pageshadow="2"
     inkscape:window-width="1839"
     inkscape:window-height="1050"
     id="namedview6"
     showgrid="false"
     inkscape:zoom="13.350176"
     inkscape:cx="41.158517"
     inkscape:cy="30.757159"
     inkscape:window-x="81"
     inkscape:window-y="30"
     inkscape:window-maximized="1"
     inkscape:current-layer="svg2" />
  <path
     d="m 44.990116,1.5881523 -39.9802321,0 c -1.9810025,0 -3.4217316,1.4407291 -3.4217316,3.4217316 l 0,39.9802321 c 0,1.800912 1.6208202,3.421732 3.4217316,3.421732 l 39.9802321,0 c 1.981003,0 3.421732,-1.440729 3.421732,-3.421732 l 0,-39.9802321 c 0,-1.9810025 -1.62082,-3.4217316 -3.421732,-3.4217316 z m -28.994673,39.6200497 -7.2036453,0 0,-21.610936 7.2036453,0 0,21.610936 z M 12.39362,16.715808 c -2.341184,0 -4.3221868,-1.981003 -4.3221868,-4.322188 0,-2.341184 1.9810028,-4.3221868 4.3221868,-4.3221868 2.341185,0 4.322188,1.9810028 4.322188,4.3221868 0,2.341185 -1.981003,4.322188 -4.322188,4.322188 z m 28.814582,24.492394 -7.203645,0 0,-10.805468 c 0,-2.881458 -0.720365,-5.762916 -3.601823,-5.762916 -2.881458,0 -3.601823,2.881458 -3.601823,5.762916 l 0,10.805468 -7.203645,0 0,-21.610936 7.203645,0 0,2.521276 0.360183,0 c 0.900455,-1.800912 3.24164,-3.241641 5.943007,-3.241641 6.663372,0 8.104101,4.322188 8.104101,9.724922 l 0,12.606379 z"
     id="path4"
     style="fill:#333333;fill-opacity:1"
     inkscape:connector-curvature="0" />
</svg>
