<?xml version="1.0" encoding="UTF-8" standalone="no"?>
<!-- Generator: Adobe Illustrator 15.0.2, SVG Export Plug-In . SVG Version: 6.00 Build 0)  -->

<svg
   xmlns:dc="http://purl.org/dc/elements/1.1/"
   xmlns:cc="http://creativecommons.org/ns#"
   xmlns:rdf="http://www.w3.org/1999/02/22-rdf-syntax-ns#"
   xmlns:svg="http://www.w3.org/2000/svg"
   xmlns="http://www.w3.org/2000/svg"
   xmlns:sodipodi="http://sodipodi.sourceforge.net/DTD/sodipodi-0.dtd"
   xmlns:inkscape="http://www.inkscape.org/namespaces/inkscape"
   version="1.1"
   id="Layer_1"
   x="0px"
   y="0px"
   width="400px"
   height="400px"
   viewBox="0 0 400 400"
   enable-background="new 0 0 400 400"
   xml:space="preserve"
   inkscape:version="0.91 r13725"
   sodipodi:docname="redbubble.svg"><metadata
     id="metadata4218"><rdf:RDF><cc:Work
         rdf:about=""><dc:format>image/svg+xml</dc:format><dc:type
           rdf:resource="http://purl.org/dc/dcmitype/StillImage" /><dc:title></dc:title></cc:Work></rdf:RDF></metadata><defs
     id="defs4216" /><sodipodi:namedview
     pagecolor="#ffffff"
     bordercolor="#666666"
     borderopacity="1"
     objecttolerance="10"
     gridtolerance="10"
     guidetolerance="10"
     inkscape:pageopacity="0"
     inkscape:pageshadow="2"
     inkscape:window-width="1831"
     inkscape:window-height="1047"
     id="namedview4214"
     showgrid="false"
     inkscape:zoom="2.225"
     inkscape:cx="141.34831"
     inkscape:cy="200"
     inkscape:window-x="89"
     inkscape:window-y="33"
     inkscape:window-maximized="1"
     inkscape:current-layer="Layer_1" /><path
     style="fill:#333333;fill-opacity:1"
     d="M 200.22656 5.7265625 A 193.864 193.864 0 0 0 6.3632812 199.5918 A 193.864 193.864 0 0 0 200.22656 393.45508 A 193.864 193.864 0 0 0 394.0918 199.5918 A 193.864 193.864 0 0 0 200.22656 5.7265625 z M 142.44922 126.80859 C 145.48897 126.81459 148.52688 126.87502 151.54688 127.10352 C 155.11388 127.37452 158.69908 128.26698 162.20508 128.95898 C 168.42408 130.18698 174.84661 133.50475 179.97461 137.09375 C 183.60661 139.63575 186.053 143.5992 188.375 147.2832 C 191.08 151.5752 192.6718 157.00208 193.4668 161.95508 C 194.4448 168.07008 193.67519 175.36408 192.11719 181.33008 C 191.57719 183.39308 190.95645 185.44364 190.18945 187.43164 C 187.56645 194.22864 183.47461 198.01772 175.84961 203.38672 C 174.47061 204.35572 172.15191 204.83072 171.62891 206.63672 C 171.16091 208.25272 172.8258 210.42245 174.8418 213.06445 C 176.0268 214.60945 201.3883 247.44541 202.9043 249.19141 C 204.4573 250.97641 206.072 253.13658 205.375 255.64258 C 204.447 258.97058 199.01795 258.45508 194.12695 258.45508 L 109.77344 258.45508 C 104.99544 258.45508 98.270922 258.81505 96.919922 257.24805 C 95.537922 255.64605 96.115234 246.48864 96.115234 241.18164 C 96.115234 222.69464 95.534234 141.17991 96.115234 133.12891 C 96.225234 131.58291 95.953641 129.38717 97.306641 128.32617 C 97.780641 127.95517 98.332828 127.68523 98.923828 127.49023 C 100.55383 126.95423 102.50059 126.99361 104.05859 127.09961 C 105.80559 127.21961 107.56245 126.98767 109.31445 127.01367 C 117.32045 127.13267 125.3358 126.82475 133.3418 126.84375 C 136.3678 126.85125 139.40947 126.80259 142.44922 126.80859 z M 261.6543 126.99609 C 268.46462 126.96583 274.9325 127.14437 280.48438 128.3125 C 283.83237 129.0175 286.62422 129.56666 289.32422 130.72266 C 293.07922 132.33166 296.92772 134.13719 300.01172 136.86719 C 310.30772 145.99119 311.87939 164.61902 307.40039 176.91602 C 306.99439 178.02902 306.05223 179.97438 304.99023 181.73438 C 303.60223 184.03638 301.2072 185.80772 303.7832 187.76172 C 308.9552 191.68972 313.90189 195.37512 317.08789 201.20312 C 324.57589 214.90012 322.40061 234.03259 311.59961 245.43359 C 307.71861 249.53259 302.63238 252.51391 297.35938 254.37891 C 277.84037 261.26891 257.42273 259.02539 237.17773 259.02539 C 231.58373 259.02539 223.12111 259.066 221.03711 257.25 C 218.64611 255.164 219.43164 247.23937 219.43164 241.98438 L 219.43164 191.77539 L 219.43164 141.16406 C 219.43164 136.91006 218.38448 128.61086 222.64648 127.50586 C 222.89648 127.44086 223.20231 127.58077 223.44531 127.50977 C 226.06831 126.73677 232.79117 127.10742 236.70117 127.10742 L 249.15039 127.10742 C 253.35789 127.10742 257.5681 127.01425 261.6543 126.99609 z "
     id="circle4206" /></svg>