<?xml version="1.0" encoding="UTF-8" standalone="no"?>
<svg
   xmlns:dc="http://purl.org/dc/elements/1.1/"
   xmlns:cc="http://creativecommons.org/ns#"
   xmlns:rdf="http://www.w3.org/1999/02/22-rdf-syntax-ns#"
   xmlns:svg="http://www.w3.org/2000/svg"
   xmlns="http://www.w3.org/2000/svg"
   xmlns:sodipodi="http://sodipodi.sourceforge.net/DTD/sodipodi-0.dtd"
   xmlns:inkscape="http://www.inkscape.org/namespaces/inkscape"
   width="2500"
   height="2500"
   viewBox="0 0 445.99303 446"
   preserveAspectRatio="xMidYMid"
   id="svg4165"
   version="1.1"
   inkscape:version="0.91 r13725"
   sodipodi:docname="tumblr.svg">
  <metadata
     id="metadata4173">
    <rdf:RDF>
      <cc:Work
         rdf:about="">
        <dc:format>image/svg+xml</dc:format>
        <dc:type
           rdf:resource="http://purl.org/dc/dcmitype/StillImage" />
        <dc:title></dc:title>
      </cc:Work>
    </rdf:RDF>
  </metadata>
  <defs
     id="defs4171" />
  <sodipodi:namedview
     pagecolor="#ffffff"
     bordercolor="#666666"
     borderopacity="1"
     objecttolerance="10"
     gridtolerance="10"
     guidetolerance="10"
     inkscape:pageopacity="0"
     inkscape:pageshadow="2"
     inkscape:window-width="1839"
     inkscape:window-height="1050"
     id="namedview4169"
     showgrid="false"
     inkscape:zoom="0.25370991"
     inkscape:cx="-75.484023"
     inkscape:cy="1325.2047"
     inkscape:window-x="81"
     inkscape:window-y="30"
     inkscape:window-maximized="1"
     inkscape:current-layer="svg4165" />
  <path
     d="m 329.57252,355.8 c -8.28,3.95 -24.125,7.387 -35.953,7.7 -35.64,0.959 -42.56,-25.04 -42.872,-43.921 l 0,-138.657 89.449,0 0,-67.42 -89.113,0 0,-113.46 -65.256,0 c -1.071,0 -2.946,0.937 -3.192,3.325 -3.816,34.726 -20.085,95.674 -87.638998,120.023 l 0,57.533 45.079998,0 0,145.553 c 0,49.812 36.757,120.602 133.792,118.95 32.717,-0.558 69.072,-14.283 77.128,-26.088 l -21.424,-63.538"
     id="path4167"
     style="fill:#333333;fill-opacity:1"
     inkscape:connector-curvature="0" />
</svg>
